<?xml version="1.0" encoding="utf-8"?>
<!-- Generator: Adobe Illustrator 24.0.1, SVG Export Plug-In . SVG Version: 6.00 Build 0)  -->
<svg version="1.1" id="Layer_1" xmlns="http://www.w3.org/2000/svg" xmlns:xlink="http://www.w3.org/1999/xlink" x="0px" y="0px"
	 viewBox="0 0 1000 1000" style="enable-background:new 0 0 1000 1000;" xml:space="preserve">
<style type="text/css">
	.st0{fill:#FB3600;}
</style>
<path class="st0" d="M800,300L700,200L600,300L500,200c-8.92-8.92-13.83-20.76-13.83-33.33c0-12.58,4.91-24.42,13.83-33.33l100,100
	l66.67-66.67L500,0l-66.67,66.67c-26.73,26.73-41.45,62.24-41.45,100c0,37.76,14.72,73.27,41.45,100l100,100L500,400L300,200
	L200,300C119.81,380.19,75.65,486.73,75.65,600c0,113.27,44.16,219.81,124.36,300l66.67-66.67
	c-62.38-62.38-96.74-145.25-96.74-233.33c0-88.08,34.36-170.95,96.74-233.33L300,333.33l133.33,133.33L400,500
	c-55.14,55.14-55.14,144.86,0,200l100,100l100-100c55.14-55.14,55.14-144.86,0-200l-33.33-33.33L600,433.33l33.33,33.33l0,0l0,0
	c35.65,35.65,55.28,83,55.28,133.33s-19.63,97.68-55.28,133.33L500,866.67L366.67,733.33c-73.52-73.52-73.52-193.15,0-266.67
	L300,400c-53.46,53.46-82.9,124.49-82.9,200s29.44,146.54,82.9,200l200,200l200-200c53.46-53.46,82.9-124.49,82.9-200
	S753.46,453.46,700,400l0,0v0l-33.33-33.33L700,333.33l33.33,33.33c62.38,62.38,96.74,145.25,96.74,233.33
	c0,88.09-34.36,170.95-96.74,233.33L800,900c80.19-80.19,124.36-186.73,124.36-300C924.35,486.73,880.19,380.19,800,300z
	 M533.33,633.33L500,666.67l-33.33-33.33c-18.38-18.38-18.38-48.29,0-66.67L500,533.33l33.33,33.33
	C551.71,585.05,551.71,614.95,533.33,633.33z"/>
</svg>
